<?xml version="1.0" encoding="UTF-8" standalone="no"?>
<svg
   xmlns:dc="http://purl.org/dc/elements/1.1/"
   xmlns:cc="http://creativecommons.org/ns#"
   xmlns:rdf="http://www.w3.org/1999/02/22-rdf-syntax-ns#"
   xmlns:svg="http://www.w3.org/2000/svg"
   xmlns="http://www.w3.org/2000/svg"
   id="svg2043"
   version="1.1"
   viewBox="0 0 8 10"
   height="10mm"
   width="8mm">
  <defs
     id="defs2037">
    <clipPath
       id="clipPath2075-3"
       clipPathUnits="userSpaceOnUse">
      <rect
         y="47.23518"
         x="37.150513"
         height="4.2404337"
         width="2.8865604"
         id="rect2077-6"
         style="opacity:1;fill:#ff9900;fill-opacity:1;stroke:#ffffff;stroke-width:0;stroke-linecap:round;stroke-linejoin:round;stroke-miterlimit:4;stroke-dasharray:none;stroke-opacity:1" />
    </clipPath>
  </defs>
  <metadata
     id="metadata2040">
    <rdf:RDF>
      <cc:Work
         rdf:about="">
        <dc:format>image/svg+xml</dc:format>
        <dc:type
           rdf:resource="http://purl.org/dc/dcmitype/StillImage" />
        <dc:title></dc:title>
      </cc:Work>
    </rdf:RDF>
  </metadata>
  <g
     transform="translate(0,-287)"
     id="layer1">
    <g
       style="fill:none;stroke:#ffffff;stroke-opacity:1"
       id="g1609-9-4-36-2-5"
       transform="matrix(3.0114558,0,0,3.0114558,-117.514,140.62706)">
      <path
         transform="matrix(-1,0,0,1,78.677972,1.0205532)"
         clip-path="url(#clipPath2075-3)"
         d="m 34.754905,48.376702 c 0.165365,0 0.165365,0 0.165365,0 m 3.230024,0 c 0.992187,0 0.992187,0 0.992187,0 m -3.726293,0 c 2.220611,0 2.220611,0 2.220611,0 m 1.634075,0.58113 c 0.153554,0 0.153554,0 0.153554,0 m -4.343514,0 c 0.685083,0 0.685083,0 0.685083,0 m 0.54334,0 c 2.433222,0 2.433222,0 2.433222,0 m -3.112397,-1.162269 h -0.165364 m 0.65555,0 c 2.102493,0 2.102493,0 2.102493,0 m -1.842632,2.905692 c 1.488281,0 1.488281,0 1.488281,0 m -2.362351,-0.58113 c 0.519716,0 0.519716,0 0.519716,0 m 2.198174,0.0042 c 0.614212,0 0.614212,0 0.614212,0 m -2.292668,-0.0042 c 1.181174,0 1.181174,0 1.181174,0 m -0.213102,-0.581139 c 1.393787,0 1.393787,0 1.393787,0 m -3.968258,0 c 2.007997,0 2.007997,0 2.007997,0"
         style="fill:none;stroke:#ffffff;stroke-width:0.26458332;stroke-linecap:round;stroke-linejoin:miter;stroke-miterlimit:4;stroke-dasharray:none;stroke-opacity:1"
         id="path1518-8-3-6-8-3" />
    </g>
  </g>
</svg>
